# xmcd CD database file
#
# Track frame offsets:
#	150
#	6492
#	19492
#	32002
#	45152
#	57735
#	69332
#	81507
#	93860
#	105635
#
# Disc length: 1561 seconds
#
# Revision: 0
# Processed by: cddbd v1.5.2PL0 Copyright (c) Steve Scherf et al.
# Submitted via: CDex 1.70beta2
#
DISCID=7e06170a
DTITLE=Acuff, Roy - USA - CMHoF - 1962  - Country Music Hall of Fame
DYEAR=1900
DGENRE=Country
TTITLE0=Intro - Minnie Pearel
TTITLE1=The Great Speckled Bird
TTITLE2=The Precious Jewl
TTITLE3=Tennessee Waltz
TTITLE4=The Prodigal Son
TTITLE5=Wabash Cannon Ball
TTITLE6=I Saw the Light
TTITLE7=Pins and Needles
TTITLE8=Freight Train Blues
TTITLE9=The Waltz of the Wind
EXTD=
EXTT0=
EXTT1=
EXTT2=
EXTT3=
EXTT4=
EXTT5=
EXTT6=
EXTT7=
EXTT8=
EXTT9=
PLAYORDER=
